<svg xmlns="http://www.w3.org/2000/svg" xmlns:xlink="http://www.w3.org/1999/xlink" width="273.8" height="110" viewBox="0 0 273.8 110">
  <defs>
    <linearGradient id="linear-gradient" x1="0.5" x2="0.5" y2="1" gradientUnits="objectBoundingBox">
      <stop offset="0" stop-color="#f9f871"/>
      <stop offset="0.322" stop-color="#ffc75f"/>
      <stop offset="0.653" stop-color="#ff9671"/>
      <stop offset="1" stop-color="#ff6f91"/>
    </linearGradient>
    <linearGradient id="linear-gradient-2" x1="0.795" x2="0.093" y2="0.712" gradientUnits="objectBoundingBox">
      <stop offset="0" stop-color="#f9f26f"/>
      <stop offset="0.347" stop-color="#ffc75f"/>
      <stop offset="0.745" stop-color="#ff9671"/>
      <stop offset="1" stop-color="#ff6f91"/>
    </linearGradient>
  </defs>
  <g id="Grupo_14" data-name="Grupo 14" transform="translate(-60.5 -45.5)">
    <g id="Grupo_13" data-name="Grupo 13">
      <rect id="Rect치ngulo_14" data-name="Rect치ngulo 14" width="77.782" height="77.782" rx="25" transform="translate(60.5 100.5) rotate(-45)" fill="url(#linear-gradient)"/>
      <path id="Sustracci칩n_2" data-name="Sustracci칩n 2" d="M-1950.88,78.239a24.916,24.916,0,0,1-9.408-1.831,24.843,24.843,0,0,1-8.27-5.492L-1982.677,56.8a24.845,24.845,0,0,1-5.492-8.27A24.918,24.918,0,0,1-1990,39.119a24.918,24.918,0,0,1,1.831-9.408,24.845,24.845,0,0,1,5.492-8.27l14.119-14.119a24.842,24.842,0,0,1,8.27-5.492A24.916,24.916,0,0,1-1950.88,0a24.916,24.916,0,0,1,9.407,1.831,24.842,24.842,0,0,1,8.27,5.492l14.119,14.119a24.844,24.844,0,0,1,5.492,8.27,24.915,24.915,0,0,1,1.831,9.408,24.915,24.915,0,0,1-1.831,9.408,24.844,24.844,0,0,1-5.492,8.27L-1933.2,70.916a24.843,24.843,0,0,1-8.27,5.492A24.917,24.917,0,0,1-1950.88,78.239Zm-2.227-34.131h0l.169.078v8.867a6,6,0,0,0-3.443,5.567,5.773,5.773,0,0,0,5.5,6,5.7,5.7,0,0,0,5.455-5.228,15.748,15.748,0,0,0,5.359-2.932,6.3,6.3,0,0,0,3.686,1.16,5.772,5.772,0,0,0,6-5.5,5.772,5.772,0,0,0-6-5.5,6.418,6.418,0,0,0-3.01.742l-6.481-6.259a6.411,6.411,0,0,0,.491-2.483,6.523,6.523,0,0,0-.22-1.687l6.292-6.076a6,6,0,0,0,2.928.762,6.006,6.006,0,0,0,6-6,6.007,6.007,0,0,0-6-6,5.943,5.943,0,0,0-3.682,1.262,15.845,15.845,0,0,0-5.45-2.966,5.534,5.534,0,0,0-5.368-4.3,5.506,5.506,0,0,0-5.5,5.5,5.478,5.478,0,0,0,3.443,5.1v8.831a5.4,5.4,0,0,0-.9.5l-4.641-4.481a5.964,5.964,0,0,0,1.094-3.456,6.007,6.007,0,0,0-6-6,6.007,6.007,0,0,0-6,6,5.99,5.99,0,0,0,1.508,3.978,11.608,11.608,0,0,0-1.464,4.021h-.044a6.008,6.008,0,0,0-6,6,6.008,6.008,0,0,0,6,6,6.066,6.066,0,0,0,.667-.037,17.512,17.512,0,0,0,.931,2.8,5.239,5.239,0,0,0-1.6,3.737,5.772,5.772,0,0,0,6,5.5,5.772,5.772,0,0,0,6-5.5,5.07,5.07,0,0,0-.474-2.148l4.748-5.863Zm7.23,12.015h0a5.717,5.717,0,0,0-3.275-3.2v-8.6a5.214,5.214,0,0,0,.788-.361l6.39,6.17a5.067,5.067,0,0,0-.406,1.993,5.071,5.071,0,0,0,.284,1.679,13.479,13.479,0,0,1-3.781,2.323Zm-14.663-8.85h0a6.454,6.454,0,0,0-2.84-.653,6.513,6.513,0,0,0-1.463.165,14.208,14.208,0,0,1-.844-2.435,6.011,6.011,0,0,0,2.174-3.466h7.538c.066.175.134.336.21.495l-4.774,5.894ZM-1956.2,37.1h-7.731a6,6,0,0,0-2.209-2.532,12.291,12.291,0,0,1,1.048-3.2,6.013,6.013,0,0,0,1.713.248,6.013,6.013,0,0,0,1.805-.276l5.5,5.308c-.045.142-.087.293-.125.447Zm8.489-3.387h0a5.323,5.323,0,0,0-1.438-.791V24.342a5.5,5.5,0,0,0,3.347-3.1,13.4,13.4,0,0,1,3.775,2.353,5.969,5.969,0,0,0-.349,2.023,5.95,5.95,0,0,0,.517,2.442l-5.85,5.651Z" transform="translate(2066.381 61.38)" fill="#121212"/>
    </g>
    <path id="Trazado_20" data-name="Trazado 20" d="M17.28.36A14.629,14.629,0,0,1,9.608-1.6,12.694,12.694,0,0,1,4.613-7.223,20.1,20.1,0,0,1,2.88-15.885a19.953,19.953,0,0,1,1.733-8.64,12.717,12.717,0,0,1,4.995-5.6,14.629,14.629,0,0,1,7.673-1.958,16.325,16.325,0,0,1,5.737,1.013,12.663,12.663,0,0,1,4.613,2.9,1.751,1.751,0,0,1,.63,1.305,1.314,1.314,0,0,1-.292.855.838.838,0,0,1-.652.36,1.789,1.789,0,0,1-1.035-.45,16.934,16.934,0,0,0-4.41-2.745,12.827,12.827,0,0,0-4.635-.765A10.361,10.361,0,0,0,8.8-26.01q-2.993,3.6-2.993,10.125,0,6.57,2.993,10.17a10.361,10.361,0,0,0,8.437,3.6A12.827,12.827,0,0,0,21.87-2.88a16.934,16.934,0,0,0,4.41-2.745,2.162,2.162,0,0,1,1.035-.45.838.838,0,0,1,.652.36,1.314,1.314,0,0,1,.292.855,1.751,1.751,0,0,1-.63,1.305,12.663,12.663,0,0,1-4.613,2.9A16.325,16.325,0,0,1,17.28.36ZM42.3.315a9.9,9.9,0,0,1-5.288-1.4A9.365,9.365,0,0,1,33.48-5.04a13.421,13.421,0,0,1-1.26-5.985,13.421,13.421,0,0,1,1.26-5.985,9.365,9.365,0,0,1,3.532-3.96A9.9,9.9,0,0,1,42.3-22.365a9.933,9.933,0,0,1,5.265,1.395A9.174,9.174,0,0,1,51.1-17.01a13.627,13.627,0,0,1,1.237,5.985A13.627,13.627,0,0,1,51.1-5.04a9.174,9.174,0,0,1-3.533,3.96A9.933,9.933,0,0,1,42.3.315Zm-.045-2.43a6.546,6.546,0,0,0,5.355-2.3Q49.5-6.7,49.5-11.025a10.21,10.21,0,0,0-1.912-6.592A6.429,6.429,0,0,0,42.3-19.98a6.414,6.414,0,0,0-5.31,2.363,10.3,10.3,0,0,0-1.89,6.592q0,4.32,1.845,6.615A6.416,6.416,0,0,0,42.255-2.115ZM81.72-22.365q7.245,0,7.245,8.46V-1.17a1.417,1.417,0,0,1-.36,1.013,1.294,1.294,0,0,1-.99.383A1.369,1.369,0,0,1,86.6-.157,1.369,1.369,0,0,1,86.22-1.17V-13.725q0-3.285-1.17-4.748a4.5,4.5,0,0,0-3.735-1.462,5.876,5.876,0,0,0-4.658,1.98,7.778,7.778,0,0,0-1.732,5.31V-1.17a1.417,1.417,0,0,1-.36,1.013,1.294,1.294,0,0,1-.99.383,1.369,1.369,0,0,1-1.012-.383A1.369,1.369,0,0,1,72.18-1.17V-13.725q0-3.285-1.17-4.748a4.5,4.5,0,0,0-3.735-1.462,5.876,5.876,0,0,0-4.658,1.98,7.778,7.778,0,0,0-1.732,5.31V-1.17a1.417,1.417,0,0,1-.36,1.013,1.294,1.294,0,0,1-.99.383,1.369,1.369,0,0,1-1.013-.383A1.369,1.369,0,0,1,58.14-1.17V-20.88a1.353,1.353,0,0,1,.382-1.035,1.417,1.417,0,0,1,1.013-.36,1.262,1.262,0,0,1,.968.36,1.39,1.39,0,0,1,.337.99v2.7a6.843,6.843,0,0,1,2.722-3.082,7.9,7.9,0,0,1,4.118-1.057q5.175,0,6.705,4.32a7.1,7.1,0,0,1,2.88-3.172A8.567,8.567,0,0,1,81.72-22.365Zm23,0q3.96,0,5.918,2.07t1.958,6.255V-1.215A1.417,1.417,0,0,1,112.23-.2a1.294,1.294,0,0,1-.99.383,1.294,1.294,0,0,1-.99-.383,1.417,1.417,0,0,1-.36-1.013v-2.7a7.075,7.075,0,0,1-2.745,3.128,7.765,7.765,0,0,1-4.14,1.1A8.574,8.574,0,0,1,99.158-.54,7.165,7.165,0,0,1,96.39-2.88a5.688,5.688,0,0,1-1.035-3.33,5.329,5.329,0,0,1,1.215-3.848,7.584,7.584,0,0,1,4.185-1.958,44.154,44.154,0,0,1,8.19-.585h.945v-1.665a6.445,6.445,0,0,0-1.215-4.342,4.857,4.857,0,0,0-3.825-1.373,12.425,12.425,0,0,0-6.345,1.755l-.7.473a1.821,1.821,0,0,1-.968.382.94.94,0,0,1-.743-.337,1.226,1.226,0,0,1-.292-.833q0-.99,1.575-1.935a14.06,14.06,0,0,1,3.51-1.4A15.389,15.389,0,0,1,104.715-22.365ZM103.23-2.07a6.3,6.3,0,0,0,4.793-1.98,7.052,7.052,0,0,0,1.868-5.04v-1.485h-.855a45.732,45.732,0,0,0-6.615.36,6.208,6.208,0,0,0-3.24,1.238,3.3,3.3,0,0,0-.945,2.542,3.947,3.947,0,0,0,1.44,3.128A5.264,5.264,0,0,0,103.23-2.07ZM126.81.315A13.527,13.527,0,0,1,123.1-.2,11.884,11.884,0,0,1,119.88-1.62a5.579,5.579,0,0,1-1.192-1.013,1.52,1.52,0,0,1-.338-.967,1.083,1.083,0,0,1,.292-.765.92.92,0,0,1,.7-.315,3.216,3.216,0,0,1,1.395.675,14.712,14.712,0,0,0,2.678,1.395,9.473,9.473,0,0,0,3.442.54A7.547,7.547,0,0,0,131-3.038a3.11,3.11,0,0,0,1.485-2.768,2.819,2.819,0,0,0-.54-1.778,4.287,4.287,0,0,0-1.8-1.215,21.88,21.88,0,0,0-3.6-1.012,13.784,13.784,0,0,1-5.693-2.318,4.712,4.712,0,0,1-1.687-3.8,5.652,5.652,0,0,1,2.25-4.657,9.157,9.157,0,0,1,5.85-1.778,12.308,12.308,0,0,1,3.353.45,8.59,8.59,0,0,1,2.768,1.305q1.575,1.08,1.575,2.115a1.165,1.165,0,0,1-.292.788.894.894,0,0,1-.7.337,2.864,2.864,0,0,1-1.4-.72,13.634,13.634,0,0,0-2.408-1.373,7.676,7.676,0,0,0-3.037-.517,6.033,6.033,0,0,0-3.735,1.058,3.4,3.4,0,0,0-1.4,2.858,2.913,2.913,0,0,0,.473,1.71,3.859,3.859,0,0,0,1.62,1.193A18.5,18.5,0,0,0,127.4-12.15a23.515,23.515,0,0,1,4.77,1.53,5.678,5.678,0,0,1,2.385,1.935,5.256,5.256,0,0,1,.72,2.88,5.235,5.235,0,0,1-2.318,4.433A10.205,10.205,0,0,1,126.81.315Zm30.015-21.78a1.212,1.212,0,0,1,1.17-.81,1.323,1.323,0,0,1,.9.36,1.108,1.108,0,0,1,.4.855,1.29,1.29,0,0,1-.135.585L146.43,7.47a1.213,1.213,0,0,1-1.17.765,1.341,1.341,0,0,1-.878-.315A1,1,0,0,1,144,7.11a1.2,1.2,0,0,1,.135-.54L147.33-.405,138.1-20.475a1.2,1.2,0,0,1-.135-.54,1.151,1.151,0,0,1,.473-.923,1.581,1.581,0,0,1,1.012-.383,1.162,1.162,0,0,1,1.17.81l8.1,18.18Z" transform="translate(175 118)" fill="url(#linear-gradient-2)"/>
  </g>
</svg>
