<svg xmlns="http://www.w3.org/2000/svg" width="213.482" height="71.593" viewBox="0 0 213.482 71.593">
  <g id="Grupo_14" data-name="Grupo 14" transform="translate(-69.368 -54.368)">
    <g id="Grupo_13" data-name="Grupo 13" transform="translate(56.066 41.066)">
      <path id="Sustracción_2" data-name="Sustracción 2" d="M34.257,70.053a24.922,24.922,0,0,1-17.678-7.322l-10.8-10.8a24.979,24.979,0,0,1,0-35.356l10.8-10.8a24.979,24.979,0,0,1,35.356,0l10.8,10.8a24.979,24.979,0,0,1,0,35.356l-10.8,10.8a24.922,24.922,0,0,1-17.678,7.322ZM32.18,38.911h0c.052.025.1.049.158.073v8.271a5.593,5.593,0,0,0-3.213,5.193,5.385,5.385,0,0,0,5.131,5.6,5.315,5.315,0,0,0,5.089-4.876,14.691,14.691,0,0,0,5-2.736,5.872,5.872,0,0,0,3.438,1.082,5.385,5.385,0,0,0,5.6-5.13,5.385,5.385,0,0,0-5.6-5.131,5.994,5.994,0,0,0-2.808.691l-6.046-5.838a5.982,5.982,0,0,0,.458-2.316,6.069,6.069,0,0,0-.205-1.573l5.87-5.667a5.6,5.6,0,1,0,2.731-10.483,5.543,5.543,0,0,0-3.434,1.177,14.752,14.752,0,0,0-5.085-2.767A5.131,5.131,0,0,0,29.126,15.6a5.108,5.108,0,0,0,3.213,4.759V28.6a4.947,4.947,0,0,0-.837.471l-4.329-4.181a5.6,5.6,0,1,0-8.766.488,10.8,10.8,0,0,0-1.366,3.751H17A5.6,5.6,0,1,0,17,40.32a5.712,5.712,0,0,0,.623-.034A16.379,16.379,0,0,0,18.49,42.9,4.892,4.892,0,0,0,17,46.384a5.385,5.385,0,0,0,5.6,5.13,5.385,5.385,0,0,0,5.6-5.13,4.733,4.733,0,0,0-.443-2l4.429-5.469Zm6.743,11.208h0a5.332,5.332,0,0,0-3.054-2.985V39.106a4.859,4.859,0,0,0,.735-.337l5.961,5.756a4.742,4.742,0,0,0-.112,3.424,12.569,12.569,0,0,1-3.528,2.168ZM25.247,41.863h0a6.082,6.082,0,0,0-4.014-.456,13.141,13.141,0,0,1-.788-2.273A5.6,5.6,0,0,0,22.472,35.9H29.5c.058.155.123.31.2.463l-4.453,5.5Zm4.046-9.491H22.08a5.6,5.6,0,0,0-2.059-2.361A11.458,11.458,0,0,1,21,27.03,5.628,5.628,0,0,0,24.281,27l5.127,4.952c-.042.133-.081.273-.116.417Zm7.918-3.158h0a4.942,4.942,0,0,0-1.341-.738v-8a5.134,5.134,0,0,0,3.122-2.89,12.5,12.5,0,0,1,3.522,2.2,5.61,5.61,0,0,0,.157,4.164l-5.458,5.272Z" transform="translate(14.842 14.842)" fill="#fff"/>
    </g>
    <path id="Trazado_20" data-name="Trazado 20" d="M14.574-5.737a11.88,11.88,0,0,1-6.231-1.59,10.309,10.309,0,0,1-4.056-4.568A16.326,16.326,0,0,1,2.88-18.929a16.2,16.2,0,0,1,1.407-7.016A10.327,10.327,0,0,1,8.343-30.5a11.88,11.88,0,0,1,6.231-1.59,13.258,13.258,0,0,1,4.659.822,10.283,10.283,0,0,1,3.746,2.357,1.422,1.422,0,0,1,.512,1.06,1.067,1.067,0,0,1-.238.694.68.68,0,0,1-.53.292,1.453,1.453,0,0,1-.841-.365A13.752,13.752,0,0,0,18.3-29.454a10.417,10.417,0,0,0-3.764-.621,8.414,8.414,0,0,0-6.852,2.924q-2.43,2.924-2.43,8.222,0,5.335,2.43,8.259a8.414,8.414,0,0,0,6.852,2.924A10.417,10.417,0,0,0,18.3-8.368,13.752,13.752,0,0,0,21.883-10.6a1.756,1.756,0,0,1,.841-.365.68.68,0,0,1,.53.292,1.067,1.067,0,0,1,.238.694,1.422,1.422,0,0,1-.512,1.06,10.283,10.283,0,0,1-3.746,2.357A13.258,13.258,0,0,1,14.574-5.737Zm20.318-.037A8.041,8.041,0,0,1,30.6-6.906a7.605,7.605,0,0,1-2.869-3.216,10.9,10.9,0,0,1-1.023-4.86,10.9,10.9,0,0,1,1.023-4.86A7.605,7.605,0,0,1,30.6-23.059a8.041,8.041,0,0,1,4.294-1.133,8.067,8.067,0,0,1,4.276,1.133,7.45,7.45,0,0,1,2.869,3.216,11.067,11.067,0,0,1,1,4.86,11.067,11.067,0,0,1-1,4.86,7.45,7.45,0,0,1-2.869,3.216A8.067,8.067,0,0,1,34.893-5.773Zm-.037-1.973A5.316,5.316,0,0,0,39.2-9.61a8.256,8.256,0,0,0,1.535-5.372,8.292,8.292,0,0,0-1.553-5.354,5.221,5.221,0,0,0-4.294-1.919,5.209,5.209,0,0,0-4.312,1.919,8.361,8.361,0,0,0-1.535,5.354,8.4,8.4,0,0,0,1.5,5.372A5.21,5.21,0,0,0,34.856-7.747ZM66.905-24.191q5.884,0,5.884,6.87V-6.979a1.151,1.151,0,0,1-.292.822,1.051,1.051,0,0,1-.8.311,1.111,1.111,0,0,1-.822-.311,1.111,1.111,0,0,1-.311-.822v-10.2a6.2,6.2,0,0,0-.95-3.855,3.654,3.654,0,0,0-3.033-1.188,4.772,4.772,0,0,0-3.782,1.608A6.316,6.316,0,0,0,61.387-16.3v9.319a1.151,1.151,0,0,1-.292.822,1.051,1.051,0,0,1-.8.311,1.111,1.111,0,0,1-.822-.311,1.111,1.111,0,0,1-.311-.822v-10.2a6.2,6.2,0,0,0-.95-3.855,3.654,3.654,0,0,0-3.033-1.188,4.772,4.772,0,0,0-3.782,1.608A6.316,6.316,0,0,0,49.985-16.3v9.319a1.151,1.151,0,0,1-.292.822,1.051,1.051,0,0,1-.8.311,1.111,1.111,0,0,1-.822-.311,1.111,1.111,0,0,1-.311-.822V-22.986a1.1,1.1,0,0,1,.311-.841,1.151,1.151,0,0,1,.822-.292,1.025,1.025,0,0,1,.786.292,1.129,1.129,0,0,1,.274.8v2.193a5.557,5.557,0,0,1,2.211-2.5,6.415,6.415,0,0,1,3.344-.859q4.2,0,5.445,3.508a5.77,5.77,0,0,1,2.339-2.576A6.957,6.957,0,0,1,66.905-24.191Zm18.674,0a6.316,6.316,0,0,1,4.806,1.681,7.154,7.154,0,0,1,1.59,5.08V-7.016a1.151,1.151,0,0,1-.292.822,1.051,1.051,0,0,1-.8.311,1.051,1.051,0,0,1-.8-.311,1.151,1.151,0,0,1-.292-.822V-9.208a5.746,5.746,0,0,1-2.229,2.54,6.306,6.306,0,0,1-3.362.9,6.963,6.963,0,0,1-3.125-.694,5.819,5.819,0,0,1-2.247-1.9,4.619,4.619,0,0,1-.841-2.7,4.327,4.327,0,0,1,.987-3.125,6.159,6.159,0,0,1,3.4-1.59,35.857,35.857,0,0,1,6.651-.475h.767v-1.352A5.234,5.234,0,0,0,88.8-21.14a3.945,3.945,0,0,0-3.106-1.115,10.09,10.09,0,0,0-5.153,1.425l-.566.384a1.479,1.479,0,0,1-.786.311.763.763,0,0,1-.6-.274,1,1,0,0,1-.238-.676q0-.8,1.279-1.571a11.418,11.418,0,0,1,2.85-1.133A12.5,12.5,0,0,1,85.579-24.191ZM84.373-7.71a5.112,5.112,0,0,0,3.892-1.608,5.727,5.727,0,0,0,1.517-4.093v-1.206h-.694a37.138,37.138,0,0,0-5.372.292,5.042,5.042,0,0,0-2.631,1,2.679,2.679,0,0,0-.767,2.065,3.205,3.205,0,0,0,1.169,2.54A4.275,4.275,0,0,0,84.373-7.71Zm19.149,1.937a10.985,10.985,0,0,1-3.015-.42,9.651,9.651,0,0,1-2.613-1.151,4.531,4.531,0,0,1-.968-.822,1.235,1.235,0,0,1-.274-.786.88.88,0,0,1,.238-.621.747.747,0,0,1,.566-.256,2.611,2.611,0,0,1,1.133.548,11.947,11.947,0,0,0,2.174,1.133,7.693,7.693,0,0,0,2.8.439,6.129,6.129,0,0,0,3.362-.786,2.526,2.526,0,0,0,1.206-2.247,2.289,2.289,0,0,0-.439-1.443,3.481,3.481,0,0,0-1.462-.987A17.769,17.769,0,0,0,103.3-14a11.194,11.194,0,0,1-4.623-1.882,3.826,3.826,0,0,1-1.37-3.088,4.59,4.59,0,0,1,1.827-3.782,7.436,7.436,0,0,1,4.751-1.443,9.995,9.995,0,0,1,2.723.365,6.976,6.976,0,0,1,2.247,1.06q1.279.877,1.279,1.718a.946.946,0,0,1-.238.64.726.726,0,0,1-.566.274,2.325,2.325,0,0,1-1.133-.585,11.072,11.072,0,0,0-1.955-1.115,6.234,6.234,0,0,0-2.467-.42,4.9,4.9,0,0,0-3.033.859,2.76,2.76,0,0,0-1.133,2.321A2.365,2.365,0,0,0,100-17.687a3.134,3.134,0,0,0,1.316.968A15.021,15.021,0,0,0,104-15.9a19.1,19.1,0,0,1,3.874,1.242,4.611,4.611,0,0,1,1.937,1.571,4.268,4.268,0,0,1,.585,2.339,4.251,4.251,0,0,1-1.882,3.6A8.288,8.288,0,0,1,103.522-5.773ZM127.9-23.461a.985.985,0,0,1,.95-.658,1.074,1.074,0,0,1,.731.292.9.9,0,0,1,.329.694,1.047,1.047,0,0,1-.11.475L119.456.037a.985.985,0,0,1-.95.621A1.089,1.089,0,0,1,117.793.4a.814.814,0,0,1-.311-.658.973.973,0,0,1,.11-.439l2.595-5.664-7.492-16.3a.973.973,0,0,1-.11-.439.935.935,0,0,1,.384-.749,1.284,1.284,0,0,1,.822-.311.944.944,0,0,1,.95.658l6.578,14.764Z" transform="translate(152.943 110.406)" fill="#fff"/>
  </g>
</svg>
